<svg xmlns="http://www.w3.org/2000/svg" viewBox="0 0 1000 1000" width="1000" height="1000">
  <style>
    path { fill: #0b0b0f; }
    @media (prefers-color-scheme: dark) { path { fill: #ffffff; } }
  </style>
  <path d="M98.7632 978.756C85.8147 991.723 66.5411 996.043 49.2965 989.844C30.5208 983.094 18 965.288 18 945.336V54.6955C18 34.7245 30.5326 16.9015 49.3262 10.1456C66.558 3.95107 85.8169 8.24963 98.7793 21.1834L498.381 419.904C499.552 421.072 501.448 421.072 502.619 419.904L902.221 21.1834C915.183 8.24958 934.442 3.95107 951.674 10.1456C970.467 16.9015 983 34.7245 983 54.6955V945.273C983 965.263 970.456 983.103 951.644 989.865C934.425 996.055 915.181 991.778 902.205 978.877L501.096 580.092C499.923 578.926 498.027 578.929 496.858 580.1L98.7632 978.756ZM869.457 792.971C871.341 794.878 874.59 793.544 874.59 790.862V209.085C874.59 206.411 871.357 205.073 869.467 206.965L580.478 496.362C579.313 497.529 579.308 499.418 580.467 500.591L869.457 792.971ZM126.41 789.36C126.41 792.037 129.651 793.374 131.538 791.474L420.511 500.602C421.68 499.425 421.673 497.524 420.495 496.357L131.522 209.959C129.628 208.082 126.41 209.424 126.41 212.09V789.36Z"/>
</svg>
