<svg width="2331" height="615" viewBox="0 0 2331 615" fill="none" xmlns="http://www.w3.org/2000/svg">
<g clip-path="url(#clip0_306_122)">
<path d="M722 454.631V158.593H827.53C850.563 158.593 869.645 162.785 884.776 171.169C899.906 179.553 911.23 191.02 918.747 205.571C926.265 220.026 930.023 236.312 930.023 254.429C930.023 272.643 926.216 289.025 918.603 303.576C911.086 318.031 899.714 329.499 884.487 337.979C869.356 346.363 850.322 350.555 827.385 350.555H754.815V312.683H823.337C837.89 312.683 849.696 310.177 858.755 305.166C867.814 300.059 874.464 293.12 878.704 284.351C882.945 275.582 885.065 265.608 885.065 254.429C885.065 243.251 882.945 233.325 878.704 224.652C874.464 215.979 867.766 209.185 858.61 204.271C849.551 199.356 837.601 196.898 822.759 196.898H766.669V454.631H722Z" fill="black"/>
<path d="M974.249 454.631V158.593H1018.92V416.18H1153.07V454.631H974.249Z" fill="black"/>
<path d="M1386.27 158.593H1431.09V353.301C1431.09 374.02 1426.22 392.378 1416.49 408.375C1406.75 424.275 1393.07 436.803 1375.43 445.958C1357.79 455.016 1337.12 459.545 1313.41 459.545C1289.8 459.545 1269.18 455.016 1251.54 445.958C1233.91 436.803 1220.22 424.275 1210.49 408.375C1200.75 392.378 1195.89 374.02 1195.89 353.301V158.593H1240.56V349.688C1240.56 363.083 1243.5 374.984 1249.37 385.391C1255.35 395.799 1263.78 403.99 1274.67 409.965C1285.56 415.843 1298.48 418.782 1313.41 418.782C1328.45 418.782 1341.41 415.843 1352.3 409.965C1363.29 403.99 1371.67 395.799 1377.46 385.391C1383.33 374.984 1386.27 363.083 1386.27 349.688V158.593Z" fill="black"/>
<path d="M1688.25 252.117C1685.46 243.347 1681.7 235.493 1676.98 228.555C1672.35 221.52 1666.81 215.545 1660.35 210.631C1653.89 205.62 1646.52 201.813 1638.23 199.211C1630.04 196.609 1621.03 195.308 1611.2 195.308C1594.53 195.308 1579.49 199.597 1566.1 208.173C1552.7 216.75 1542.1 229.326 1534.29 245.901C1526.58 262.38 1522.73 282.568 1522.73 306.467C1522.73 330.462 1526.63 350.748 1534.44 367.323C1542.24 383.898 1552.94 396.474 1566.53 405.05C1580.12 413.627 1595.59 417.915 1612.93 417.915C1629.03 417.915 1643.05 414.639 1655 408.086C1667.05 401.533 1676.35 392.282 1682.9 380.332C1689.55 368.286 1692.88 354.12 1692.88 337.835L1704.44 340.003H1619.73V303.143H1736.1V336.823C1736.1 361.685 1730.8 383.271 1720.2 401.581C1709.69 419.794 1695.14 433.864 1676.54 443.789C1658.04 453.715 1636.84 458.678 1612.93 458.678C1586.14 458.678 1562.63 452.511 1542.39 440.176C1522.25 427.841 1506.54 410.35 1495.26 387.704C1483.99 364.962 1478.35 337.979 1478.35 306.756C1478.35 283.147 1481.63 261.946 1488.18 243.154C1494.73 224.363 1503.94 208.414 1515.79 195.308C1527.74 182.106 1541.76 172.036 1557.86 165.098C1574.05 158.063 1591.73 154.545 1610.91 154.545C1626.91 154.545 1641.8 156.906 1655.58 161.628C1669.46 166.35 1681.79 173.048 1692.59 181.721C1703.48 190.394 1712.49 200.705 1719.62 212.654C1726.75 224.508 1731.57 237.662 1734.08 252.117H1688.25Z" fill="black"/>
<path d="M1985.02 252.117C1982.23 243.347 1978.47 235.493 1973.75 228.555C1969.12 221.52 1963.58 215.545 1957.12 210.631C1950.67 205.62 1943.29 201.813 1935.01 199.211C1926.81 196.609 1917.8 195.308 1907.97 195.308C1891.3 195.308 1876.27 199.597 1862.87 208.173C1849.47 216.75 1838.87 229.326 1831.07 245.901C1823.36 262.38 1819.5 282.568 1819.5 306.467C1819.5 330.462 1823.41 350.748 1831.21 367.323C1839.02 383.898 1849.72 396.474 1863.3 405.05C1876.89 413.627 1892.36 417.915 1909.71 417.915C1925.8 417.915 1939.83 414.639 1951.78 408.086C1963.82 401.533 1973.12 392.282 1979.68 380.332C1986.33 368.286 1989.65 354.12 1989.65 337.835L2001.22 340.003H1916.5V303.143H2032.87V336.823C2032.87 361.685 2027.57 383.271 2016.97 401.581C2006.47 419.794 1991.92 433.864 1973.32 443.789C1954.81 453.715 1933.61 458.678 1909.71 458.678C1882.92 458.678 1859.4 452.511 1839.16 440.176C1819.02 427.841 1803.31 410.35 1792.04 387.704C1780.76 364.962 1775.12 337.979 1775.12 306.756C1775.12 283.147 1778.4 261.946 1784.95 243.154C1791.51 224.363 1800.71 208.414 1812.56 195.308C1824.51 182.106 1838.54 172.036 1854.63 165.098C1870.82 158.063 1888.51 154.545 1907.68 154.545C1923.68 154.545 1938.57 156.906 1952.35 161.628C1966.23 166.35 1978.57 173.048 1989.36 181.721C2000.25 190.394 2009.26 200.705 2016.39 212.654C2023.53 224.508 2028.34 237.662 2030.85 252.117H1985.02Z" fill="black"/>
<path d="M2048.66 158.593H2099.4L2176.74 293.169H2179.92L2257.26 158.593H2308L2200.59 338.413V454.631H2156.07V338.413L2048.66 158.593Z" fill="black"/>
<path d="M59.258 595.254C51.4888 603.034 39.9247 605.626 29.578 601.906C18.3125 597.857 10.8 587.173 10.8 575.202V40.8173C10.8 28.8347 18.3196 18.1409 29.5958 14.0873C39.9349 10.3706 51.4902 12.9498 59.2676 20.7101L298.181 259.097C299.352 260.265 301.248 260.265 302.419 259.097L541.332 20.7101C549.11 12.9498 560.665 10.3706 571.004 14.0873C582.28 18.1409 589.8 28.8347 589.8 40.8173V575.164C589.8 587.158 582.273 597.862 570.987 601.919C560.655 605.633 549.109 603.067 541.323 595.326L301.507 356.899C300.334 355.733 298.438 355.737 297.269 356.907L59.258 595.254ZM519.621 481.705C521.505 483.612 524.754 482.277 524.754 479.596V136.351C524.754 133.677 521.521 132.339 519.631 134.231L349.129 304.974C347.964 306.141 347.959 308.029 349.118 309.202L519.621 481.705ZM75.8459 478.705C75.8459 481.383 79.0872 482.719 80.9742 480.82L251.46 309.213C252.629 308.037 252.621 306.136 251.444 304.968L80.9577 136.002C79.064 134.125 75.8459 135.467 75.8459 138.133V478.705Z" fill="black"/>
</g>
<defs>
<clipPath id="clip0_306_122">
<rect width="2331" height="615" fill="white"/>
</clipPath>
</defs>
</svg>
